<svg width="36" height="36" viewBox="0 0 36 36" fill="none" xmlns="http://www.w3.org/2000/svg">
<rect width="36" height="36" rx="8" fill="#FF6767"/>
<path fill-rule="evenodd" clip-rule="evenodd" d="M16.6532 10.7122C15.5717 10.7901 14.5245 11.1255 13.5989 11.6904C12.6734 12.2553 11.8964 13.0333 11.3327 13.9596C10.769 14.8859 10.435 15.9336 10.3585 17.0152C10.2821 18.0968 10.4654 19.1811 10.8932 20.1774C11.321 21.1738 11.9809 22.0534 12.8178 22.7429C13.6547 23.4324 14.6443 23.9117 15.7041 24.141C16.7639 24.3702 17.8632 24.3426 18.9102 24.0606C19.9572 23.7786 20.9216 23.2503 21.7229 22.5197L24.8466 25.2242C25.0075 25.3588 25.2149 25.4247 25.424 25.4078C25.633 25.391 25.8271 25.2926 25.9644 25.1341C26.1017 24.9755 26.1713 24.7693 26.158 24.56C26.1448 24.3506 26.0499 24.1548 25.8937 24.0148L22.7701 21.3103C23.4865 20.2535 23.8909 19.0163 23.9371 17.7404C23.9832 16.4644 23.6692 15.2013 23.031 14.0955C22.3927 12.9897 21.4561 12.0859 20.3282 11.4876C19.2003 10.8892 17.9267 10.6205 16.6532 10.7122ZM11.9544 17.8677C11.8555 16.4921 12.3071 15.1336 13.2098 14.091C14.1125 13.0483 15.3924 12.407 16.768 12.3081C18.1436 12.2091 19.5021 12.6607 20.5448 13.5634C21.5874 14.4661 22.2287 15.7461 22.3276 17.1216C22.4266 18.4972 21.975 19.8558 21.0723 20.8984C20.1696 21.941 18.8896 22.5823 17.5141 22.6813C16.1385 22.7802 14.78 22.3286 13.7373 21.4259C12.6947 20.5232 12.0534 19.2433 11.9544 17.8677Z" fill="white"/>
</svg>
